<?xml version="1.0" encoding="UTF-8" standalone="no"?>
<!-- Created with Inkscape (http://www.inkscape.org/) -->

<svg
   width="457mm"
   height="197mm"
   viewBox="0 0 457 197"
   version="1.1"
   id="svg5"
   inkscape:version="1.2.2 (732a01da63, 2022-12-09, custom)"
   sodipodi:docname="small-swoole-db-large.svg"
   inkscape:export-filename="../41d7cd07/logo-composer-212x150.png"
   inkscape:export-xdpi="12.828283"
   inkscape:export-ydpi="12.828283"
   xmlns:inkscape="http://www.inkscape.org/namespaces/inkscape"
   xmlns:sodipodi="http://sodipodi.sourceforge.net/DTD/sodipodi-0.dtd"
   xmlns:xlink="http://www.w3.org/1999/xlink"
   xmlns="http://www.w3.org/2000/svg"
   xmlns:svg="http://www.w3.org/2000/svg">
  <sodipodi:namedview
     id="namedview7"
     pagecolor="#ffffff"
     bordercolor="#000000"
     borderopacity="0.25"
     inkscape:showpageshadow="2"
     inkscape:pageopacity="0.0"
     inkscape:pagecheckerboard="0"
     inkscape:deskcolor="#d1d1d1"
     inkscape:document-units="mm"
     showgrid="false"
     inkscape:zoom="0.5"
     inkscape:cx="1045"
     inkscape:cy="246"
     inkscape:window-width="1844"
     inkscape:window-height="1011"
     inkscape:window-x="0"
     inkscape:window-y="0"
     inkscape:window-maximized="1"
     inkscape:current-layer="g567" />
  <defs
     id="defs2">
    <radialGradient
       inkscape:collect="always"
       xlink:href="#linearGradient1234"
       id="radialGradient1236"
       cx="163.01532"
       cy="147.4155"
       fx="163.01532"
       fy="147.4155"
       r="18.6619"
       gradientTransform="matrix(0.85310032,0,0,0.85652518,21.090537,-48.260876)"
       gradientUnits="userSpaceOnUse" />
    <linearGradient
       inkscape:collect="always"
       id="linearGradient1234">
      <stop
         style="stop-color:#fb6200;stop-opacity:1;"
         offset="0.3462663"
         id="stop1230" />
      <stop
         style="stop-color:#fb6200;stop-opacity:0;"
         offset="1"
         id="stop1232" />
    </linearGradient>
    <radialGradient
       inkscape:collect="always"
       xlink:href="#linearGradient1234"
       id="radialGradient1236-1"
       cx="163.01532"
       cy="147.4155"
       fx="163.01532"
       fy="147.4155"
       r="18.6619"
       gradientTransform="matrix(0.85310032,0,0,0.85652518,-68.800919,-2.569249)"
       gradientUnits="userSpaceOnUse" />
    <radialGradient
       inkscape:collect="always"
       xlink:href="#linearGradient1234"
       id="radialGradient1236-9"
       cx="163.01532"
       cy="147.4155"
       fx="163.01532"
       fy="147.4155"
       r="18.6619"
       gradientTransform="matrix(0.85310032,0,0,0.85652518,-23.77937,42.011452)"
       gradientUnits="userSpaceOnUse" />
  </defs>
  <g
     inkscape:label="Calque 1"
     inkscape:groupmode="layer"
     id="layer1">
    <g
       id="g446"
       transform="translate(-48.150907,-37.449981)">
      <g
         id="g567"
         transform="matrix(1.1721951,0,0,1.1721951,2.5359643,-7.6406842)">
        <path
           id="rect170"
           style="fill:#ff6600;stroke-width:0.128324"
           d="M 51.629799,59.82859 H 88.137981 V 96.336773 H 51.629799 Z" />
        <path
           id="rect170-3"
           style="display:inline;fill:#ccff00;stroke-width:0.128324"
           d="M 96.394577,59.792755 H 132.90276 V 96.300938 H 96.394577 Z" />
        <path
           id="rect170-6"
           style="display:inline;fill:#ff6600;stroke-width:0.128324"
           d="m 51.689335,105.47751 h 36.508182 v 36.50818 H 51.689335 Z" />
        <path
           id="rect170-3-7"
           style="display:inline;fill:#ff6600;stroke-width:0.128324"
           d="m 96.454109,105.44168 h 36.508181 v 36.50818 H 96.454109 Z" />
        <path
           id="rect170-3-5"
           style="display:inline;fill:#ff6600;stroke-width:0.128324"
           d="m 141.83881,59.81805 h 36.50818 v 36.508183 h -36.50818 z" />
        <path
           id="rect170-3-7-3"
           style="display:inline;fill:#ff6600;stroke-width:0.128324"
           d="m 141.89833,105.46696 h 36.50818 v 36.50818 h -36.50818 z" />
        <path
           id="rect170-6-9"
           style="display:inline;fill:#ff6600;stroke-width:0.128324"
           d="m 51.886536,150.24861 h 36.508182 v 36.50818 H 51.886536 Z" />
        <path
           id="rect170-3-7-1"
           style="display:inline;fill:#ff6600;stroke-width:0.128324"
           d="m 96.651306,150.21278 h 36.508184 v 36.50819 H 96.651306 Z" />
        <path
           id="rect170-3-7-3-2"
           style="display:inline;fill:#ff6600;stroke-width:0.128324"
           d="m 142.09554,150.23807 h 36.50818 v 36.50818 h -36.50818 z" />
        <g
           aria-label="Small"
           id="text1620"
           style="font-size:45.1432px;font-family:'G7 Cube 5';-inkscape-font-specification:'G7 Cube 5, Normal';stroke-width:0.225716">
          <path
             d="m 215.13259,61.192444 v 4.342388 q -2.5349,-1.212342 -4.78324,-1.807491 -2.24834,-0.59515 -4.34239,-0.59515 -3.63702,0 -5.62086,1.410725 -1.96179,1.410725 -1.96179,4.011749 0,2.182215 1.30052,3.306387 1.32255,1.102129 4.98162,1.785449 l 2.68919,0.551064 q 4.98163,0.947831 7.34018,3.350472 2.3806,2.380598 2.3806,6.392348 0,4.783239 -3.21822,7.252008 -3.19617,2.468769 -9.39013,2.468769 -2.33652,0 -4.98163,-0.529022 -2.62306,-0.529022 -5.44451,-1.565023 V 86.98226 q 2.71123,1.520938 5.31226,2.292429 2.60102,0.77149 5.11388,0.77149 3.81336,0 5.88536,-1.498895 2.07201,-1.498896 2.07201,-4.276261 0,-2.424683 -1.4989,-3.791323 -1.47685,-1.36664 -4.87141,-2.04996 l -2.71124,-0.529022 q -4.98162,-0.991916 -7.20792,-3.108003 -2.2263,-2.116088 -2.2263,-5.885369 0,-4.36443 3.06392,-6.877284 3.08596,-2.512854 8.48639,-2.512854 2.31447,0 4.71711,0.418809 2.40264,0.418809 4.9155,1.256427 z"
             id="path4164" />
          <path
             d="m 243.10462,73.073394 q 1.52094,-2.73328 3.63703,-4.033792 2.11608,-1.300512 4.98162,-1.300512 3.85745,0 5.95149,2.711237 2.09405,2.689194 2.09405,7.670817 v 14.900783 h -4.07788 V 78.2534 q 0,-3.548856 -1.25642,-5.268177 -1.25643,-1.719321 -3.83541,-1.719321 -3.15209,0 -4.98163,2.094045 -1.82953,2.094045 -1.82953,5.709028 v 13.952952 h -4.07788 V 78.2534 q 0,-3.570898 -1.25642,-5.268177 -1.25643,-1.719321 -3.8795,-1.719321 -3.108,0 -4.93754,2.116088 -1.82953,2.094045 -1.82953,5.686985 v 13.952952 h -4.07788 V 68.334239 h 4.07788 v 3.835409 q 1.38868,-2.270386 3.32843,-3.350472 1.93975,-1.080086 4.6069,-1.080086 2.68919,0 4.56281,1.36664 1.89566,1.366639 2.79941,3.967664 z"
             id="path4166" />
          <path
             d="m 279.07811,80.611955 q -4.9155,0 -6.81116,1.124172 -1.89566,1.124171 -1.89566,3.835408 0,2.160173 1.41072,3.438643 1.43277,1.256427 3.8795,1.256427 3.37251,0 5.40043,-2.380599 2.04996,-2.402641 2.04996,-6.370305 v -0.903746 z m 8.08962,-1.675236 v 14.085208 h -4.05583 v -3.747238 q -1.38868,2.248343 -3.46069,3.328429 -2.072,1.058044 -5.06979,1.058044 -3.79132,0 -6.03966,-2.116088 -2.22631,-2.13813 -2.22631,-5.709028 0,-4.166047 2.77737,-6.282134 2.79941,-2.116088 8.33209,-2.116088 h 5.68699 v -0.396766 q 0,-2.799408 -1.85158,-4.320346 -1.82953,-1.54298 -5.15796,-1.54298 -2.11609,0 -4.12196,0.506979 -2.00588,0.50698 -3.85745,1.520938 v -3.747238 q 2.2263,-0.859661 4.32034,-1.27847 2.09405,-0.440851 4.07788,-0.440851 5.35634,0 8.00145,2.777365 2.64511,2.777364 2.64511,8.420264 z"
             id="path4168" />
          <path
             d="m 295.52187,58.723675 h 4.05584 v 34.298252 h -4.05584 z"
             id="path4170" />
          <path
             d="m 308.0641,58.723675 h 4.05584 v 34.298252 h -4.05584 z"
             id="path4172" />
        </g>
        <g
           aria-label="Swoole"
           id="text1624"
           style="font-size:45.1432px;font-family:'G7 Cube 5';-inkscape-font-specification:'G7 Cube 5, Normal';fill:#4d4d4d;stroke-width:0.225716">
          <path
             d="m 214.51787,107.67874 v 4.34239 q -2.53489,-1.21234 -4.78324,-1.80749 -2.24834,-0.59515 -4.34238,-0.59515 -3.63703,0 -5.62086,1.41072 -1.96179,1.41073 -1.96179,4.01175 0,2.18222 1.30051,3.30639 1.32256,1.10213 4.98162,1.78545 l 2.6892,0.55106 q 4.98162,0.94783 7.34018,3.35047 2.38059,2.3806 2.38059,6.39235 0,4.78324 -3.21821,7.25201 -3.19618,2.46877 -9.39014,2.46877 -2.33651,0 -4.98162,-0.52902 -2.62307,-0.52902 -5.44452,-1.56503 v -4.58485 q 2.71124,1.52094 5.31226,2.29243 2.60103,0.77149 5.11388,0.77149 3.81337,0 5.88537,-1.4989 2.072,-1.49889 2.072,-4.27626 0,-2.42468 -1.49889,-3.79132 -1.47686,-1.36664 -4.87141,-2.04996 l -2.71124,-0.52902 q -4.98162,-0.99192 -7.20792,-3.10801 -2.2263,-2.11609 -2.2263,-5.88537 0,-4.36443 3.06391,-6.87728 3.08596,-2.51285 8.4864,-2.51285 2.31447,0 4.71711,0.4188 2.40264,0.41881 4.91549,1.25643 z"
             id="path4175" />
          <path
             d="m 220.91022,114.82054 h 4.05583 l 5.0698,19.26521 5.04775,-19.26521 h 4.78324 l 5.06979,19.26521 5.04775,-19.26521 h 4.05584 l -6.45848,24.68768 h -4.78324 l -5.31226,-20.23508 -5.3343,20.23508 h -4.78324 z"
             id="path4177" />
          <path
             d="m 269.75657,117.66403 q -3.2623,0 -5.15796,2.55694 -1.89566,2.5349 -1.89566,6.96545 0,4.43056 1.87362,6.9875 1.89566,2.5349 5.18,2.5349 3.24026,0 5.13592,-2.55694 1.89566,-2.55694 1.89566,-6.96546 0,-4.38647 -1.89566,-6.94341 -1.89566,-2.57898 -5.13592,-2.57898 z m 0,-3.43864 q 5.29022,0 8.31005,3.43864 3.01984,3.43864 3.01984,9.52239 0,6.06171 -3.01984,9.5224 -3.01983,3.43864 -8.31005,3.43864 -5.31226,0 -8.33209,-3.43864 -2.99779,-3.46069 -2.99779,-9.5224 0,-6.08375 2.99779,-9.52239 3.01983,-3.43864 8.33209,-3.43864 z"
             id="path4179" />
          <path
             d="m 297.37593,117.66403 q -3.26231,0 -5.15797,2.55694 -1.89566,2.5349 -1.89566,6.96545 0,4.43056 1.87362,6.9875 1.89566,2.5349 5.18001,2.5349 3.24025,0 5.13592,-2.55694 1.89566,-2.55694 1.89566,-6.96546 0,-4.38647 -1.89566,-6.94341 -1.89567,-2.57898 -5.13592,-2.57898 z m 0,-3.43864 q 5.29021,0 8.31005,3.43864 3.01983,3.43864 3.01983,9.52239 0,6.06171 -3.01983,9.5224 -3.01984,3.43864 -8.31005,3.43864 -5.31227,0 -8.3321,-3.43864 -2.99779,-3.46069 -2.99779,-9.5224 0,-6.08375 2.99779,-9.52239 3.01983,-3.43864 8.3321,-3.43864 z"
             id="path4181" />
          <path
             d="m 315.42879,105.20997 h 4.05584 v 34.29825 h -4.05584 z"
             id="path4183" />
          <path
             d="m 349.08782,126.15042 v 1.98383 H 330.4398 q 0.26451,4.18809 2.51285,6.39235 2.27039,2.18222 6.30418,2.18222 2.33651,0 4.51873,-0.57311 2.20426,-0.57311 4.36443,-1.71932 v 3.83541 q -2.18222,0.92579 -4.47464,1.41072 -2.29243,0.48494 -4.65099,0.48494 -5.90741,0 -9.36809,-3.43864 -3.43865,-3.43865 -3.43865,-9.30197 0,-6.06171 3.26231,-9.61056 3.28434,-3.5709 8.83907,-3.5709 4.98162,0 7.8692,3.21821 2.90962,3.19618 2.90962,8.70682 z m -4.05583,-1.1903 q -0.0441,-3.32843 -1.87362,-5.31226 -1.8075,-1.98383 -4.80529,-1.98383 -3.39455,0 -5.44451,1.9177 -2.02792,1.91771 -2.33652,5.40044 z"
             id="path4185" />
        </g>
        <g
           aria-label="DB"
           id="text1628"
           style="font-size:51.1623px;font-family:Uroob;-inkscape-font-specification:'Uroob, Normal';stroke-width:0.225716">
          <path
             d="m 211.7266,179.79047 q 0,2.22336 -1.34901,3.62233 -1.349,1.37399 -3.59734,1.37399 h -13.34017 v -31.92648 h 12.3409 q 2.4482,0 4.19691,1.62381 1.74871,1.6238 1.74871,4.072 z m -4.52167,-1.07421 v -19.33575 q 0,-1.67377 -1.29904,-2.42321 -0.39971,-0.24982 -0.92432,-0.22484 h -6.99484 v 24.13222 h 7.74429 q 1.27406,-0.025 1.42395,-1.37399 0.05,-0.3997 0.05,-0.77443 z"
             id="path4188" />
          <path
             d="m 231.93671,164.62664 q 0,2.67303 -1.84864,3.54739 2.59809,0.74945 2.59809,4.37178 v 6.81997 q 0,2.24835 -1.27407,3.82219 -1.27406,1.59882 -3.47244,1.59882 h -13.73987 v -31.92648 h 4.54665 v 0.025 h 8.44378 q 2.24834,0 3.49742,1.64878 1.24908,1.64879 1.24908,3.94709 z m -4.44673,-5.89565 q 0,-1.87362 -2.14841,-1.87362 h -6.59514 v 9.59293 h 7.14473 q 0.77443,0 1.17414,-0.59956 0.42468,-0.59956 0.42468,-1.32402 z m -1.14915,22.2586 q 1.8986,0 1.8986,-1.97355 v -6.72005 q 0,-1.87362 -2.14841,-1.87362 h -7.34459 v 10.56722 z"
             id="path4190" />
        </g>
        <path
           style="fill:none;stroke-width:4.52143202;stroke-dasharray:none;stroke:#ff07f0;stroke-opacity:0.53603709"
           d="M 70.301007,127.84163 C 75.979178,97.073698 116.93078,67.402608 153.34514,77.207152 189.7595,87.011696 134.2157,170.14929 116.29596,172.07317 98.376212,173.99705 98.169894,106.38978 70.301007,127.84163 Z"
           id="path844" />
        <path
           id="path143-3-6-7"
           style="fill:#ffffff;stroke:url(#radialGradient1236);stroke-width:8.50114"
           d="M 176.07942,78.004227 A 15.920472,15.984387 0 0 1 160.15895,93.988614 15.920472,15.984387 0 0 1 144.23848,78.004227 15.920472,15.984387 0 0 1 160.15895,62.019839 15.920472,15.984387 0 0 1 176.07942,78.004227 Z" />
        <path
           id="path143-3-6-7-06"
           style="display:inline;fill:#ffffff;stroke:url(#radialGradient1236-9);stroke-width:8.50114"
           d="m 131.20953,168.27657 a 15.920472,15.984387 0 0 1 -15.92047,15.98438 15.920472,15.984387 0 0 1 -15.92047,-15.98438 15.920472,15.984387 0 0 1 15.92047,-15.98439 15.920472,15.984387 0 0 1 15.92047,15.98439 z" />
        <path
           id="path143-3-6-7-0"
           style="display:inline;fill:#ffffff;stroke:url(#radialGradient1236-1);stroke-width:8.50114"
           d="M 86.187974,123.69586 A 15.920472,15.984387 0 0 1 70.267502,139.68025 15.920472,15.984387 0 0 1 54.34703,123.69586 15.920472,15.984387 0 0 1 70.267502,107.71147 15.920472,15.984387 0 0 1 86.187974,123.69586 Z" />
      </g>
    </g>
  </g>
  <script
     id="mesh_polyfill"
     type="text/javascript">
!function(){const t=&quot;http://www.w3.org/2000/svg&quot;,e=&quot;http://www.w3.org/1999/xlink&quot;,s=&quot;http://www.w3.org/1999/xhtml&quot;,r=2;if(document.createElementNS(t,&quot;meshgradient&quot;).x)return;const n=(t,e,s,r)=&gt;{let n=new x(.5*(e.x+s.x),.5*(e.y+s.y)),o=new x(.5*(t.x+e.x),.5*(t.y+e.y)),i=new x(.5*(s.x+r.x),.5*(s.y+r.y)),a=new x(.5*(n.x+o.x),.5*(n.y+o.y)),h=new x(.5*(n.x+i.x),.5*(n.y+i.y)),l=new x(.5*(a.x+h.x),.5*(a.y+h.y));return[[t,o,a,l],[l,h,i,r]]},o=t=&gt;{let e=t[0].distSquared(t[1]),s=t[2].distSquared(t[3]),r=.25*t[0].distSquared(t[2]),n=.25*t[1].distSquared(t[3]),o=e&gt;s?e:s,i=r&gt;n?r:n;return 18*(o&gt;i?o:i)},i=(t,e)=&gt;Math.sqrt(t.distSquared(e)),a=(t,e)=&gt;t.scale(2/3).add(e.scale(1/3)),h=t=&gt;{let e,s,r,n,o,i,a,h=new g;return t.match(/(\w+\(\s*[^)]+\))+/g).forEach(t=&gt;{let l=t.match(/[\w.-]+/g),d=l.shift();switch(d){case&quot;translate&quot;:2===l.length?e=new g(1,0,0,1,l[0],l[1]):(console.error(&quot;mesh.js: translate does not have 2 arguments!&quot;),e=new g(1,0,0,1,0,0)),h=h.append(e);break;case&quot;scale&quot;:1===l.length?s=new g(l[0],0,0,l[0],0,0):2===l.length?s=new g(l[0],0,0,l[1],0,0):(console.error(&quot;mesh.js: scale does not have 1 or 2 arguments!&quot;),s=new g(1,0,0,1,0,0)),h=h.append(s);break;case&quot;rotate&quot;:if(3===l.length&amp;&amp;(e=new g(1,0,0,1,l[1],l[2]),h=h.append(e)),l[0]){r=l[0]*Math.PI/180;let t=Math.cos(r),e=Math.sin(r);Math.abs(t)&lt;1e-16&amp;&amp;(t=0),Math.abs(e)&lt;1e-16&amp;&amp;(e=0),a=new g(t,e,-e,t,0,0),h=h.append(a)}else console.error(&quot;math.js: No argument to rotate transform!&quot;);3===l.length&amp;&amp;(e=new g(1,0,0,1,-l[1],-l[2]),h=h.append(e));break;case&quot;skewX&quot;:l[0]?(r=l[0]*Math.PI/180,n=Math.tan(r),o=new g(1,0,n,1,0,0),h=h.append(o)):console.error(&quot;math.js: No argument to skewX transform!&quot;);break;case&quot;skewY&quot;:l[0]?(r=l[0]*Math.PI/180,n=Math.tan(r),i=new g(1,n,0,1,0,0),h=h.append(i)):console.error(&quot;math.js: No argument to skewY transform!&quot;);break;case&quot;matrix&quot;:6===l.length?h=h.append(new g(...l)):console.error(&quot;math.js: Incorrect number of arguments for matrix!&quot;);break;default:console.error(&quot;mesh.js: Unhandled transform type: &quot;+d)}}),h},l=t=&gt;{let e=[],s=t.split(/[ ,]+/);for(let t=0,r=s.length-1;t&lt;r;t+=2)e.push(new x(parseFloat(s[t]),parseFloat(s[t+1])));return e},d=(t,e)=&gt;{for(let s in e)t.setAttribute(s,e[s])},c=(t,e,s,r,n)=&gt;{let o,i,a=[0,0,0,0];for(let h=0;h&lt;3;++h)e[h]&lt;t[h]&amp;&amp;e[h]&lt;s[h]||t[h]&lt;e[h]&amp;&amp;s[h]&lt;e[h]?a[h]=0:(a[h]=.5*((e[h]-t[h])/r+(s[h]-e[h])/n),o=Math.abs(3*(e[h]-t[h])/r),i=Math.abs(3*(s[h]-e[h])/n),a[h]&gt;o?a[h]=o:a[h]&gt;i&amp;&amp;(a[h]=i));return a},u=[[1,0,0,0,0,0,0,0,0,0,0,0,0,0,0,0],[0,0,0,0,1,0,0,0,0,0,0,0,0,0,0,0],[-3,3,0,0,-2,-1,0,0,0,0,0,0,0,0,0,0],[2,-2,0,0,1,1,0,0,0,0,0,0,0,0,0,0],[0,0,0,0,0,0,0,0,1,0,0,0,0,0,0,0],[0,0,0,0,0,0,0,0,0,0,0,0,1,0,0,0],[0,0,0,0,0,0,0,0,-3,3,0,0,-2,-1,0,0],[0,0,0,0,0,0,0,0,2,-2,0,0,1,1,0,0],[-3,0,3,0,0,0,0,0,-2,0,-1,0,0,0,0,0],[0,0,0,0,-3,0,3,0,0,0,0,0,-2,0,-1,0],[9,-9,-9,9,6,3,-6,-3,6,-6,3,-3,4,2,2,1],[-6,6,6,-6,-3,-3,3,3,-4,4,-2,2,-2,-2,-1,-1],[2,0,-2,0,0,0,0,0,1,0,1,0,0,0,0,0],[0,0,0,0,2,0,-2,0,0,0,0,0,1,0,1,0],[-6,6,6,-6,-4,-2,4,2,-3,3,-3,3,-2,-1,-2,-1],[4,-4,-4,4,2,2,-2,-2,2,-2,2,-2,1,1,1,1]],f=t=&gt;{let e=[];for(let s=0;s&lt;16;++s){e[s]=0;for(let r=0;r&lt;16;++r)e[s]+=u[s][r]*t[r]}return e},p=(t,e,s)=&gt;{const r=e*e,n=s*s,o=e*e*e,i=s*s*s;return t[0]+t[1]*e+t[2]*r+t[3]*o+t[4]*s+t[5]*s*e+t[6]*s*r+t[7]*s*o+t[8]*n+t[9]*n*e+t[10]*n*r+t[11]*n*o+t[12]*i+t[13]*i*e+t[14]*i*r+t[15]*i*o},y=t=&gt;{let e=[],s=[],r=[];for(let s=0;s&lt;4;++s)e[s]=[],e[s][0]=n(t[0][s],t[1][s],t[2][s],t[3][s]),e[s][1]=[],e[s][1].push(...n(...e[s][0][0])),e[s][1].push(...n(...e[s][0][1])),e[s][2]=[],e[s][2].push(...n(...e[s][1][0])),e[s][2].push(...n(...e[s][1][1])),e[s][2].push(...n(...e[s][1][2])),e[s][2].push(...n(...e[s][1][3]));for(let t=0;t&lt;8;++t){s[t]=[];for(let r=0;r&lt;4;++r)s[t][r]=[],s[t][r][0]=n(e[0][2][t][r],e[1][2][t][r],e[2][2][t][r],e[3][2][t][r]),s[t][r][1]=[],s[t][r][1].push(...n(...s[t][r][0][0])),s[t][r][1].push(...n(...s[t][r][0][1])),s[t][r][2]=[],s[t][r][2].push(...n(...s[t][r][1][0])),s[t][r][2].push(...n(...s[t][r][1][1])),s[t][r][2].push(...n(...s[t][r][1][2])),s[t][r][2].push(...n(...s[t][r][1][3]))}for(let t=0;t&lt;8;++t){r[t]=[];for(let e=0;e&lt;8;++e)r[t][e]=[],r[t][e][0]=s[t][0][2][e],r[t][e][1]=s[t][1][2][e],r[t][e][2]=s[t][2][2][e],r[t][e][3]=s[t][3][2][e]}return r};class x{constructor(t,e){this.x=t||0,this.y=e||0}toString(){return`(x=${this.x}, y=${this.y})`}clone(){return new x(this.x,this.y)}add(t){return new x(this.x+t.x,this.y+t.y)}scale(t){return void 0===t.x?new x(this.x*t,this.y*t):new x(this.x*t.x,this.y*t.y)}distSquared(t){let e=this.x-t.x,s=this.y-t.y;return e*e+s*s}transform(t){let e=this.x*t.a+this.y*t.c+t.e,s=this.x*t.b+this.y*t.d+t.f;return new x(e,s)}}class g{constructor(t,e,s,r,n,o){void 0===t?(this.a=1,this.b=0,this.c=0,this.d=1,this.e=0,this.f=0):(this.a=t,this.b=e,this.c=s,this.d=r,this.e=n,this.f=o)}toString(){return`affine: ${this.a} ${this.c} ${this.e} \n       ${this.b} ${this.d} ${this.f}`}append(t){t instanceof g||console.error(&quot;mesh.js: argument to Affine.append is not affine!&quot;);let e=this.a*t.a+this.c*t.b,s=this.b*t.a+this.d*t.b,r=this.a*t.c+this.c*t.d,n=this.b*t.c+this.d*t.d,o=this.a*t.e+this.c*t.f+this.e,i=this.b*t.e+this.d*t.f+this.f;return new g(e,s,r,n,o,i)}}class w{constructor(t,e){this.nodes=t,this.colors=e}paintCurve(t,e){if(o(this.nodes)&gt;r){const s=n(...this.nodes);let r=[[],[]],o=[[],[]];for(let t=0;t&lt;4;++t)r[0][t]=this.colors[0][t],r[1][t]=(this.colors[0][t]+this.colors[1][t])/2,o[0][t]=r[1][t],o[1][t]=this.colors[1][t];let i=new w(s[0],r),a=new w(s[1],o);i.paintCurve(t,e),a.paintCurve(t,e)}else{let s=Math.round(this.nodes[0].x);if(s&gt;=0&amp;&amp;s&lt;e){let r=4*(~~this.nodes[0].y*e+s);t[r]=Math.round(this.colors[0][0]),t[r+1]=Math.round(this.colors[0][1]),t[r+2]=Math.round(this.colors[0][2]),t[r+3]=Math.round(this.colors[0][3])}}}}class m{constructor(t,e){this.nodes=t,this.colors=e}split(){let t=[[],[],[],[]],e=[[],[],[],[]],s=[[[],[]],[[],[]]],r=[[[],[]],[[],[]]];for(let s=0;s&lt;4;++s){const r=n(this.nodes[0][s],this.nodes[1][s],this.nodes[2][s],this.nodes[3][s]);t[0][s]=r[0][0],t[1][s]=r[0][1],t[2][s]=r[0][2],t[3][s]=r[0][3],e[0][s]=r[1][0],e[1][s]=r[1][1],e[2][s]=r[1][2],e[3][s]=r[1][3]}for(let t=0;t&lt;4;++t)s[0][0][t]=this.colors[0][0][t],s[0][1][t]=this.colors[0][1][t],s[1][0][t]=(this.colors[0][0][t]+this.colors[1][0][t])/2,s[1][1][t]=(this.colors[0][1][t]+this.colors[1][1][t])/2,r[0][0][t]=s[1][0][t],r[0][1][t]=s[1][1][t],r[1][0][t]=this.colors[1][0][t],r[1][1][t]=this.colors[1][1][t];return[new m(t,s),new m(e,r)]}paint(t,e){let s,n=!1;for(let t=0;t&lt;4;++t)if((s=o([this.nodes[0][t],this.nodes[1][t],this.nodes[2][t],this.nodes[3][t]]))&gt;r){n=!0;break}if(n){let s=this.split();s[0].paint(t,e),s[1].paint(t,e)}else{new w([...this.nodes[0]],[...this.colors[0]]).paintCurve(t,e)}}}class b{constructor(t){this.readMesh(t),this.type=t.getAttribute(&quot;type&quot;)||&quot;bilinear&quot;}readMesh(t){let e=[[]],s=[[]],r=Number(t.getAttribute(&quot;x&quot;)),n=Number(t.getAttribute(&quot;y&quot;));e[0][0]=new x(r,n);let o=t.children;for(let t=0,r=o.length;t&lt;r;++t){e[3*t+1]=[],e[3*t+2]=[],e[3*t+3]=[],s[t+1]=[];let r=o[t].children;for(let n=0,o=r.length;n&lt;o;++n){let o=r[n].children;for(let r=0,i=o.length;r&lt;i;++r){let i=r;0!==t&amp;&amp;++i;let h,d=o[r].getAttribute(&quot;path&quot;),c=&quot;l&quot;;null!=d&amp;&amp;(c=(h=d.match(/\s*([lLcC])\s*(.*)/))[1]);let u=l(h[2]);switch(c){case&quot;l&quot;:0===i?(e[3*t][3*n+3]=u[0].add(e[3*t][3*n]),e[3*t][3*n+1]=a(e[3*t][3*n],e[3*t][3*n+3]),e[3*t][3*n+2]=a(e[3*t][3*n+3],e[3*t][3*n])):1===i?(e[3*t+3][3*n+3]=u[0].add(e[3*t][3*n+3]),e[3*t+1][3*n+3]=a(e[3*t][3*n+3],e[3*t+3][3*n+3]),e[3*t+2][3*n+3]=a(e[3*t+3][3*n+3],e[3*t][3*n+3])):2===i?(0===n&amp;&amp;(e[3*t+3][3*n+0]=u[0].add(e[3*t+3][3*n+3])),e[3*t+3][3*n+1]=a(e[3*t+3][3*n],e[3*t+3][3*n+3]),e[3*t+3][3*n+2]=a(e[3*t+3][3*n+3],e[3*t+3][3*n])):(e[3*t+1][3*n]=a(e[3*t][3*n],e[3*t+3][3*n]),e[3*t+2][3*n]=a(e[3*t+3][3*n],e[3*t][3*n]));break;case&quot;L&quot;:0===i?(e[3*t][3*n+3]=u[0],e[3*t][3*n+1]=a(e[3*t][3*n],e[3*t][3*n+3]),e[3*t][3*n+2]=a(e[3*t][3*n+3],e[3*t][3*n])):1===i?(e[3*t+3][3*n+3]=u[0],e[3*t+1][3*n+3]=a(e[3*t][3*n+3],e[3*t+3][3*n+3]),e[3*t+2][3*n+3]=a(e[3*t+3][3*n+3],e[3*t][3*n+3])):2===i?(0===n&amp;&amp;(e[3*t+3][3*n+0]=u[0]),e[3*t+3][3*n+1]=a(e[3*t+3][3*n],e[3*t+3][3*n+3]),e[3*t+3][3*n+2]=a(e[3*t+3][3*n+3],e[3*t+3][3*n])):(e[3*t+1][3*n]=a(e[3*t][3*n],e[3*t+3][3*n]),e[3*t+2][3*n]=a(e[3*t+3][3*n],e[3*t][3*n]));break;case&quot;c&quot;:0===i?(e[3*t][3*n+1]=u[0].add(e[3*t][3*n]),e[3*t][3*n+2]=u[1].add(e[3*t][3*n]),e[3*t][3*n+3]=u[2].add(e[3*t][3*n])):1===i?(e[3*t+1][3*n+3]=u[0].add(e[3*t][3*n+3]),e[3*t+2][3*n+3]=u[1].add(e[3*t][3*n+3]),e[3*t+3][3*n+3]=u[2].add(e[3*t][3*n+3])):2===i?(e[3*t+3][3*n+2]=u[0].add(e[3*t+3][3*n+3]),e[3*t+3][3*n+1]=u[1].add(e[3*t+3][3*n+3]),0===n&amp;&amp;(e[3*t+3][3*n+0]=u[2].add(e[3*t+3][3*n+3]))):(e[3*t+2][3*n]=u[0].add(e[3*t+3][3*n]),e[3*t+1][3*n]=u[1].add(e[3*t+3][3*n]));break;case&quot;C&quot;:0===i?(e[3*t][3*n+1]=u[0],e[3*t][3*n+2]=u[1],e[3*t][3*n+3]=u[2]):1===i?(e[3*t+1][3*n+3]=u[0],e[3*t+2][3*n+3]=u[1],e[3*t+3][3*n+3]=u[2]):2===i?(e[3*t+3][3*n+2]=u[0],e[3*t+3][3*n+1]=u[1],0===n&amp;&amp;(e[3*t+3][3*n+0]=u[2])):(e[3*t+2][3*n]=u[0],e[3*t+1][3*n]=u[1]);break;default:console.error(&quot;mesh.js: &quot;+c+&quot; invalid path type.&quot;)}if(0===t&amp;&amp;0===n||r&gt;0){let e=window.getComputedStyle(o[r]).stopColor.match(/^rgb\s*\(\s*(\d+)\s*,\s*(\d+)\s*,\s*(\d+)\s*\)$/i),a=window.getComputedStyle(o[r]).stopOpacity,h=255;a&amp;&amp;(h=Math.floor(255*a)),e&amp;&amp;(0===i?(s[t][n]=[],s[t][n][0]=Math.floor(e[1]),s[t][n][1]=Math.floor(e[2]),s[t][n][2]=Math.floor(e[3]),s[t][n][3]=h):1===i?(s[t][n+1]=[],s[t][n+1][0]=Math.floor(e[1]),s[t][n+1][1]=Math.floor(e[2]),s[t][n+1][2]=Math.floor(e[3]),s[t][n+1][3]=h):2===i?(s[t+1][n+1]=[],s[t+1][n+1][0]=Math.floor(e[1]),s[t+1][n+1][1]=Math.floor(e[2]),s[t+1][n+1][2]=Math.floor(e[3]),s[t+1][n+1][3]=h):3===i&amp;&amp;(s[t+1][n]=[],s[t+1][n][0]=Math.floor(e[1]),s[t+1][n][1]=Math.floor(e[2]),s[t+1][n][2]=Math.floor(e[3]),s[t+1][n][3]=h))}}e[3*t+1][3*n+1]=new x,e[3*t+1][3*n+2]=new x,e[3*t+2][3*n+1]=new x,e[3*t+2][3*n+2]=new x,e[3*t+1][3*n+1].x=(-4*e[3*t][3*n].x+6*(e[3*t][3*n+1].x+e[3*t+1][3*n].x)+-2*(e[3*t][3*n+3].x+e[3*t+3][3*n].x)+3*(e[3*t+3][3*n+1].x+e[3*t+1][3*n+3].x)+-1*e[3*t+3][3*n+3].x)/9,e[3*t+1][3*n+2].x=(-4*e[3*t][3*n+3].x+6*(e[3*t][3*n+2].x+e[3*t+1][3*n+3].x)+-2*(e[3*t][3*n].x+e[3*t+3][3*n+3].x)+3*(e[3*t+3][3*n+2].x+e[3*t+1][3*n].x)+-1*e[3*t+3][3*n].x)/9,e[3*t+2][3*n+1].x=(-4*e[3*t+3][3*n].x+6*(e[3*t+3][3*n+1].x+e[3*t+2][3*n].x)+-2*(e[3*t+3][3*n+3].x+e[3*t][3*n].x)+3*(e[3*t][3*n+1].x+e[3*t+2][3*n+3].x)+-1*e[3*t][3*n+3].x)/9,e[3*t+2][3*n+2].x=(-4*e[3*t+3][3*n+3].x+6*(e[3*t+3][3*n+2].x+e[3*t+2][3*n+3].x)+-2*(e[3*t+3][3*n].x+e[3*t][3*n+3].x)+3*(e[3*t][3*n+2].x+e[3*t+2][3*n].x)+-1*e[3*t][3*n].x)/9,e[3*t+1][3*n+1].y=(-4*e[3*t][3*n].y+6*(e[3*t][3*n+1].y+e[3*t+1][3*n].y)+-2*(e[3*t][3*n+3].y+e[3*t+3][3*n].y)+3*(e[3*t+3][3*n+1].y+e[3*t+1][3*n+3].y)+-1*e[3*t+3][3*n+3].y)/9,e[3*t+1][3*n+2].y=(-4*e[3*t][3*n+3].y+6*(e[3*t][3*n+2].y+e[3*t+1][3*n+3].y)+-2*(e[3*t][3*n].y+e[3*t+3][3*n+3].y)+3*(e[3*t+3][3*n+2].y+e[3*t+1][3*n].y)+-1*e[3*t+3][3*n].y)/9,e[3*t+2][3*n+1].y=(-4*e[3*t+3][3*n].y+6*(e[3*t+3][3*n+1].y+e[3*t+2][3*n].y)+-2*(e[3*t+3][3*n+3].y+e[3*t][3*n].y)+3*(e[3*t][3*n+1].y+e[3*t+2][3*n+3].y)+-1*e[3*t][3*n+3].y)/9,e[3*t+2][3*n+2].y=(-4*e[3*t+3][3*n+3].y+6*(e[3*t+3][3*n+2].y+e[3*t+2][3*n+3].y)+-2*(e[3*t+3][3*n].y+e[3*t][3*n+3].y)+3*(e[3*t][3*n+2].y+e[3*t+2][3*n].y)+-1*e[3*t][3*n].y)/9}}this.nodes=e,this.colors=s}paintMesh(t,e){let s=(this.nodes.length-1)/3,r=(this.nodes[0].length-1)/3;if(&quot;bilinear&quot;===this.type||s&lt;2||r&lt;2){let n;for(let o=0;o&lt;s;++o)for(let s=0;s&lt;r;++s){let r=[];for(let t=3*o,e=3*o+4;t&lt;e;++t)r.push(this.nodes[t].slice(3*s,3*s+4));let i=[];i.push(this.colors[o].slice(s,s+2)),i.push(this.colors[o+1].slice(s,s+2)),(n=new m(r,i)).paint(t,e)}}else{let n,o,a,h,l,d,u;const x=s,g=r;s++,r++;let w=new Array(s);for(let t=0;t&lt;s;++t){w[t]=new Array(r);for(let e=0;e&lt;r;++e)w[t][e]=[],w[t][e][0]=this.nodes[3*t][3*e],w[t][e][1]=this.colors[t][e]}for(let t=0;t&lt;s;++t)for(let e=0;e&lt;r;++e)0!==t&amp;&amp;t!==x&amp;&amp;(n=i(w[t-1][e][0],w[t][e][0]),o=i(w[t+1][e][0],w[t][e][0]),w[t][e][2]=c(w[t-1][e][1],w[t][e][1],w[t+1][e][1],n,o)),0!==e&amp;&amp;e!==g&amp;&amp;(n=i(w[t][e-1][0],w[t][e][0]),o=i(w[t][e+1][0],w[t][e][0]),w[t][e][3]=c(w[t][e-1][1],w[t][e][1],w[t][e+1][1],n,o));for(let t=0;t&lt;r;++t){w[0][t][2]=[],w[x][t][2]=[];for(let e=0;e&lt;4;++e)n=i(w[1][t][0],w[0][t][0]),o=i(w[x][t][0],w[x-1][t][0]),w[0][t][2][e]=n&gt;0?2*(w[1][t][1][e]-w[0][t][1][e])/n-w[1][t][2][e]:0,w[x][t][2][e]=o&gt;0?2*(w[x][t][1][e]-w[x-1][t][1][e])/o-w[x-1][t][2][e]:0}for(let t=0;t&lt;s;++t){w[t][0][3]=[],w[t][g][3]=[];for(let e=0;e&lt;4;++e)n=i(w[t][1][0],w[t][0][0]),o=i(w[t][g][0],w[t][g-1][0]),w[t][0][3][e]=n&gt;0?2*(w[t][1][1][e]-w[t][0][1][e])/n-w[t][1][3][e]:0,w[t][g][3][e]=o&gt;0?2*(w[t][g][1][e]-w[t][g-1][1][e])/o-w[t][g-1][3][e]:0}for(let s=0;s&lt;x;++s)for(let r=0;r&lt;g;++r){let n=i(w[s][r][0],w[s+1][r][0]),o=i(w[s][r+1][0],w[s+1][r+1][0]),c=i(w[s][r][0],w[s][r+1][0]),x=i(w[s+1][r][0],w[s+1][r+1][0]),g=[[],[],[],[]];for(let t=0;t&lt;4;++t){(d=[])[0]=w[s][r][1][t],d[1]=w[s+1][r][1][t],d[2]=w[s][r+1][1][t],d[3]=w[s+1][r+1][1][t],d[4]=w[s][r][2][t]*n,d[5]=w[s+1][r][2][t]*n,d[6]=w[s][r+1][2][t]*o,d[7]=w[s+1][r+1][2][t]*o,d[8]=w[s][r][3][t]*c,d[9]=w[s+1][r][3][t]*x,d[10]=w[s][r+1][3][t]*c,d[11]=w[s+1][r+1][3][t]*x,d[12]=0,d[13]=0,d[14]=0,d[15]=0,u=f(d);for(let e=0;e&lt;9;++e){g[t][e]=[];for(let s=0;s&lt;9;++s)g[t][e][s]=p(u,e/8,s/8),g[t][e][s]&gt;255?g[t][e][s]=255:g[t][e][s]&lt;0&amp;&amp;(g[t][e][s]=0)}}h=[];for(let t=3*s,e=3*s+4;t&lt;e;++t)h.push(this.nodes[t].slice(3*r,3*r+4));l=y(h);for(let s=0;s&lt;8;++s)for(let r=0;r&lt;8;++r)(a=new m(l[s][r],[[[g[0][s][r],g[1][s][r],g[2][s][r],g[3][s][r]],[g[0][s][r+1],g[1][s][r+1],g[2][s][r+1],g[3][s][r+1]]],[[g[0][s+1][r],g[1][s+1][r],g[2][s+1][r],g[3][s+1][r]],[g[0][s+1][r+1],g[1][s+1][r+1],g[2][s+1][r+1],g[3][s+1][r+1]]]])).paint(t,e)}}}transform(t){if(t instanceof x)for(let e=0,s=this.nodes.length;e&lt;s;++e)for(let s=0,r=this.nodes[0].length;s&lt;r;++s)this.nodes[e][s]=this.nodes[e][s].add(t);else if(t instanceof g)for(let e=0,s=this.nodes.length;e&lt;s;++e)for(let s=0,r=this.nodes[0].length;s&lt;r;++s)this.nodes[e][s]=this.nodes[e][s].transform(t)}scale(t){for(let e=0,s=this.nodes.length;e&lt;s;++e)for(let s=0,r=this.nodes[0].length;s&lt;r;++s)this.nodes[e][s]=this.nodes[e][s].scale(t)}}document.querySelectorAll(&quot;rect,circle,ellipse,path,text&quot;).forEach((r,n)=&gt;{let o=r.getAttribute(&quot;id&quot;);o||(o=&quot;patchjs_shape&quot;+n,r.setAttribute(&quot;id&quot;,o));const i=r.style.fill.match(/^url\(\s*&quot;?\s*#([^\s&quot;]+)&quot;?\s*\)/),a=r.style.stroke.match(/^url\(\s*&quot;?\s*#([^\s&quot;]+)&quot;?\s*\)/);if(i&amp;&amp;i[1]){const a=document.getElementById(i[1]);if(a&amp;&amp;&quot;meshgradient&quot;===a.nodeName){const i=r.getBBox();let l=document.createElementNS(s,&quot;canvas&quot;);d(l,{width:i.width,height:i.height});const c=l.getContext(&quot;2d&quot;);let u=c.createImageData(i.width,i.height);const f=new b(a);&quot;objectBoundingBox&quot;===a.getAttribute(&quot;gradientUnits&quot;)&amp;&amp;f.scale(new x(i.width,i.height));const p=a.getAttribute(&quot;gradientTransform&quot;);null!=p&amp;&amp;f.transform(h(p)),&quot;userSpaceOnUse&quot;===a.getAttribute(&quot;gradientUnits&quot;)&amp;&amp;f.transform(new x(-i.x,-i.y)),f.paintMesh(u.data,l.width),c.putImageData(u,0,0);const y=document.createElementNS(t,&quot;image&quot;);d(y,{width:i.width,height:i.height,x:i.x,y:i.y});let g=l.toDataURL();y.setAttributeNS(e,&quot;xlink:href&quot;,g),r.parentNode.insertBefore(y,r),r.style.fill=&quot;none&quot;;const w=document.createElementNS(t,&quot;use&quot;);w.setAttributeNS(e,&quot;xlink:href&quot;,&quot;#&quot;+o);const m=&quot;patchjs_clip&quot;+n,M=document.createElementNS(t,&quot;clipPath&quot;);M.setAttribute(&quot;id&quot;,m),M.appendChild(w),r.parentElement.insertBefore(M,r),y.setAttribute(&quot;clip-path&quot;,&quot;url(#&quot;+m+&quot;)&quot;),u=null,l=null,g=null}}if(a&amp;&amp;a[1]){const o=document.getElementById(a[1]);if(o&amp;&amp;&quot;meshgradient&quot;===o.nodeName){const i=parseFloat(r.style.strokeWidth.slice(0,-2))*(parseFloat(r.style.strokeMiterlimit)||parseFloat(r.getAttribute(&quot;stroke-miterlimit&quot;))||1),a=r.getBBox(),l=Math.trunc(a.width+i),c=Math.trunc(a.height+i),u=Math.trunc(a.x-i/2),f=Math.trunc(a.y-i/2);let p=document.createElementNS(s,&quot;canvas&quot;);d(p,{width:l,height:c});const y=p.getContext(&quot;2d&quot;);let g=y.createImageData(l,c);const w=new b(o);&quot;objectBoundingBox&quot;===o.getAttribute(&quot;gradientUnits&quot;)&amp;&amp;w.scale(new x(l,c));const m=o.getAttribute(&quot;gradientTransform&quot;);null!=m&amp;&amp;w.transform(h(m)),&quot;userSpaceOnUse&quot;===o.getAttribute(&quot;gradientUnits&quot;)&amp;&amp;w.transform(new x(-u,-f)),w.paintMesh(g.data,p.width),y.putImageData(g,0,0);const M=document.createElementNS(t,&quot;image&quot;);d(M,{width:l,height:c,x:0,y:0});let S=p.toDataURL();M.setAttributeNS(e,&quot;xlink:href&quot;,S);const k=&quot;pattern_clip&quot;+n,A=document.createElementNS(t,&quot;pattern&quot;);d(A,{id:k,patternUnits:&quot;userSpaceOnUse&quot;,width:l,height:c,x:u,y:f}),A.appendChild(M),o.parentNode.appendChild(A),r.style.stroke=&quot;url(#&quot;+k+&quot;)&quot;,g=null,p=null,S=null}}})}();
</script>
</svg>
